<mxfile host="Electron" modified="2023-12-30T09:51:53.057Z" agent="Mozilla/5.0 (Windows NT 10.0; Win64; x64) AppleWebKit/537.36 (KHTML, like Gecko) draw.io/22.1.16 Chrome/120.0.6099.109 Electron/28.1.0 Safari/537.36" etag="O6elUnU5ouT6jLA5CUGn" version="22.1.16" type="device">
  <diagram name="Page-1" id="gUvG4r4jfSp6b_kdzFB5">
    <mxGraphModel dx="752" dy="516" grid="1" gridSize="10" guides="1" tooltips="1" connect="1" arrows="1" fold="1" page="1" pageScale="1" pageWidth="850" pageHeight="1100" math="0" shadow="0">
      <root>
        <mxCell id="0" />
        <mxCell id="1" parent="0" />
        <mxCell id="ER6fGadgTy1CO4UheATH-53" value="调用栈&lt;br&gt;Call Stack" style="rounded=0;whiteSpace=wrap;html=1;fillColor=#fad7ac;strokeColor=#b46504;align=center;verticalAlign=middle;" parent="1" vertex="1">
          <mxGeometry x="470" y="360" width="120" height="300" as="geometry" />
        </mxCell>
        <mxCell id="ER6fGadgTy1CO4UheATH-52" value="调用栈&lt;br&gt;Call Stack" style="rounded=0;whiteSpace=wrap;html=1;fillColor=#fad7ac;strokeColor=#b46504;align=center;verticalAlign=middle;" parent="1" vertex="1">
          <mxGeometry x="260" y="360" width="120" height="300" as="geometry" />
        </mxCell>
        <mxCell id="ER6fGadgTy1CO4UheATH-40" value="&lt;font face=&quot;consolas&quot;&gt;main()&lt;/font&gt;" style="rounded=0;whiteSpace=wrap;html=1;fillColor=#b1ddf0;strokeColor=#10739e;" parent="1" vertex="1">
          <mxGeometry x="260" y="640" width="120" height="20" as="geometry" />
        </mxCell>
        <mxCell id="ER6fGadgTy1CO4UheATH-41" value="&lt;font face=&quot;consolas&quot;&gt;factorial(12)&lt;/font&gt;" style="rounded=0;whiteSpace=wrap;html=1;fillColor=#b1ddf0;strokeColor=#10739e;" parent="1" vertex="1">
          <mxGeometry x="260" y="620" width="120" height="20" as="geometry" />
        </mxCell>
        <mxCell id="ER6fGadgTy1CO4UheATH-45" value="" style="edgeStyle=orthogonalEdgeStyle;rounded=0;orthogonalLoop=1;jettySize=auto;html=1;" parent="1" source="ER6fGadgTy1CO4UheATH-43" target="ER6fGadgTy1CO4UheATH-52" edge="1">
          <mxGeometry relative="1" as="geometry">
            <mxPoint x="220" y="525" as="targetPoint" />
          </mxGeometry>
        </mxCell>
        <mxCell id="ER6fGadgTy1CO4UheATH-46" value="main调用&lt;br&gt;factorial(12)&lt;br&gt;压入堆栈帧" style="edgeLabel;html=1;align=center;verticalAlign=middle;resizable=0;points=[];" parent="ER6fGadgTy1CO4UheATH-45" vertex="1" connectable="0">
          <mxGeometry x="-0.0143" relative="1" as="geometry">
            <mxPoint y="25" as="offset" />
          </mxGeometry>
        </mxCell>
        <mxCell id="ER6fGadgTy1CO4UheATH-43" value="调用栈&lt;br&gt;Call Stack" style="rounded=0;whiteSpace=wrap;html=1;fillColor=#fad7ac;strokeColor=#b46504;align=center;verticalAlign=middle;" parent="1" vertex="1">
          <mxGeometry x="50" y="360" width="120" height="300" as="geometry" />
        </mxCell>
        <mxCell id="ER6fGadgTy1CO4UheATH-44" value="&lt;font face=&quot;consolas&quot;&gt;main()&lt;/font&gt;" style="rounded=0;whiteSpace=wrap;html=1;fillColor=#b1ddf0;strokeColor=#10739e;" parent="1" vertex="1">
          <mxGeometry x="50" y="640" width="120" height="20" as="geometry" />
        </mxCell>
        <mxCell id="ER6fGadgTy1CO4UheATH-48" value="&lt;font face=&quot;consolas&quot;&gt;main()&lt;/font&gt;" style="rounded=0;whiteSpace=wrap;html=1;fillColor=#b1ddf0;strokeColor=#10739e;" parent="1" vertex="1">
          <mxGeometry x="470" y="640" width="120" height="20" as="geometry" />
        </mxCell>
        <mxCell id="ER6fGadgTy1CO4UheATH-49" value="&lt;font face=&quot;consolas&quot;&gt;factorial(12)&lt;/font&gt;" style="rounded=0;whiteSpace=wrap;html=1;fillColor=#b1ddf0;strokeColor=#10739e;" parent="1" vertex="1">
          <mxGeometry x="470" y="620" width="120" height="20" as="geometry" />
        </mxCell>
        <mxCell id="ER6fGadgTy1CO4UheATH-50" value="" style="edgeStyle=orthogonalEdgeStyle;rounded=0;orthogonalLoop=1;jettySize=auto;html=1;entryX=0;entryY=0.5;entryDx=0;entryDy=0;exitX=1;exitY=0.5;exitDx=0;exitDy=0;" parent="1" source="ER6fGadgTy1CO4UheATH-52" target="ER6fGadgTy1CO4UheATH-53" edge="1">
          <mxGeometry relative="1" as="geometry">
            <mxPoint x="380" y="525" as="sourcePoint" />
            <mxPoint x="460" y="525" as="targetPoint" />
          </mxGeometry>
        </mxCell>
        <mxCell id="ER6fGadgTy1CO4UheATH-51" value="factorial(12)调用&lt;br&gt;factorial(11)&lt;br&gt;压入堆栈帧" style="edgeLabel;html=1;align=center;verticalAlign=middle;resizable=0;points=[];" parent="ER6fGadgTy1CO4UheATH-50" vertex="1" connectable="0">
          <mxGeometry x="-0.0143" relative="1" as="geometry">
            <mxPoint y="25" as="offset" />
          </mxGeometry>
        </mxCell>
        <mxCell id="ER6fGadgTy1CO4UheATH-54" value="&lt;font face=&quot;consolas&quot;&gt;factorial(11)&lt;/font&gt;" style="rounded=0;whiteSpace=wrap;html=1;fillColor=#b1ddf0;strokeColor=#10739e;" parent="1" vertex="1">
          <mxGeometry x="470" y="600" width="120" height="20" as="geometry" />
        </mxCell>
        <mxCell id="ER6fGadgTy1CO4UheATH-61" value="" style="edgeStyle=orthogonalEdgeStyle;rounded=0;orthogonalLoop=1;jettySize=auto;html=1;" parent="1" source="ER6fGadgTy1CO4UheATH-53" target="ER6fGadgTy1CO4UheATH-131" edge="1">
          <mxGeometry relative="1" as="geometry">
            <mxPoint x="630" y="525" as="sourcePoint" />
            <mxPoint x="680" y="510" as="targetPoint" />
          </mxGeometry>
        </mxCell>
        <mxCell id="ER6fGadgTy1CO4UheATH-62" value="……" style="edgeLabel;html=1;align=center;verticalAlign=middle;resizable=0;points=[];" parent="ER6fGadgTy1CO4UheATH-61" vertex="1" connectable="0">
          <mxGeometry x="-0.0143" relative="1" as="geometry">
            <mxPoint y="15" as="offset" />
          </mxGeometry>
        </mxCell>
        <mxCell id="ER6fGadgTy1CO4UheATH-75" value="调用栈&lt;br&gt;Call Stack" style="rounded=0;whiteSpace=wrap;html=1;fillColor=#fad7ac;strokeColor=#b46504;align=center;verticalAlign=middle;" parent="1" vertex="1">
          <mxGeometry x="50" y="700" width="120" height="300" as="geometry" />
        </mxCell>
        <mxCell id="ER6fGadgTy1CO4UheATH-76" value="&lt;font face=&quot;consolas&quot;&gt;main()&lt;/font&gt;" style="rounded=0;whiteSpace=wrap;html=1;fillColor=#b1ddf0;strokeColor=#10739e;" parent="1" vertex="1">
          <mxGeometry x="50" y="980" width="120" height="20" as="geometry" />
        </mxCell>
        <mxCell id="ER6fGadgTy1CO4UheATH-77" value="&lt;font face=&quot;consolas&quot;&gt;factorial(12)&lt;/font&gt;" style="rounded=0;whiteSpace=wrap;html=1;fillColor=#b1ddf0;strokeColor=#10739e;" parent="1" vertex="1">
          <mxGeometry x="50" y="960" width="120" height="20" as="geometry" />
        </mxCell>
        <mxCell id="ER6fGadgTy1CO4UheATH-78" value="&lt;font face=&quot;consolas&quot;&gt;factorial(11)&lt;/font&gt;" style="rounded=0;whiteSpace=wrap;html=1;fillColor=#b1ddf0;strokeColor=#10739e;" parent="1" vertex="1">
          <mxGeometry x="50" y="940" width="120" height="20" as="geometry" />
        </mxCell>
        <mxCell id="ER6fGadgTy1CO4UheATH-79" value="&lt;font face=&quot;consolas&quot;&gt;factorial(10)&lt;/font&gt;" style="rounded=0;whiteSpace=wrap;html=1;fillColor=#b1ddf0;strokeColor=#10739e;" parent="1" vertex="1">
          <mxGeometry x="50" y="920" width="120" height="20" as="geometry" />
        </mxCell>
        <mxCell id="ER6fGadgTy1CO4UheATH-80" value="&lt;font face=&quot;consolas&quot;&gt;factorial(9)&lt;/font&gt;" style="rounded=0;whiteSpace=wrap;html=1;fillColor=#b1ddf0;strokeColor=#10739e;" parent="1" vertex="1">
          <mxGeometry x="50" y="900" width="120" height="20" as="geometry" />
        </mxCell>
        <mxCell id="ER6fGadgTy1CO4UheATH-81" value="&lt;font face=&quot;consolas&quot;&gt;factorial(8)&lt;/font&gt;" style="rounded=0;whiteSpace=wrap;html=1;fillColor=#b1ddf0;strokeColor=#10739e;" parent="1" vertex="1">
          <mxGeometry x="50" y="880" width="120" height="20" as="geometry" />
        </mxCell>
        <mxCell id="ER6fGadgTy1CO4UheATH-82" value="&lt;font face=&quot;consolas&quot;&gt;factorial(7)&lt;/font&gt;" style="rounded=0;whiteSpace=wrap;html=1;fillColor=#b1ddf0;strokeColor=#10739e;" parent="1" vertex="1">
          <mxGeometry x="50" y="860" width="120" height="20" as="geometry" />
        </mxCell>
        <mxCell id="ER6fGadgTy1CO4UheATH-83" value="&lt;font face=&quot;consolas&quot;&gt;factorial(6)&lt;/font&gt;" style="rounded=0;whiteSpace=wrap;html=1;fillColor=#b1ddf0;strokeColor=#10739e;" parent="1" vertex="1">
          <mxGeometry x="50" y="840" width="120" height="20" as="geometry" />
        </mxCell>
        <mxCell id="ER6fGadgTy1CO4UheATH-84" value="&lt;font face=&quot;consolas&quot;&gt;factorial(5)&lt;/font&gt;" style="rounded=0;whiteSpace=wrap;html=1;fillColor=#b1ddf0;strokeColor=#10739e;" parent="1" vertex="1">
          <mxGeometry x="50" y="820" width="120" height="20" as="geometry" />
        </mxCell>
        <mxCell id="ER6fGadgTy1CO4UheATH-85" value="&lt;font face=&quot;consolas&quot;&gt;factorial(4)&lt;/font&gt;" style="rounded=0;whiteSpace=wrap;html=1;fillColor=#b1ddf0;strokeColor=#10739e;" parent="1" vertex="1">
          <mxGeometry x="50" y="800" width="120" height="20" as="geometry" />
        </mxCell>
        <mxCell id="ER6fGadgTy1CO4UheATH-86" value="&lt;font face=&quot;consolas&quot;&gt;factorial(3)&lt;/font&gt;" style="rounded=0;whiteSpace=wrap;html=1;fillColor=#b1ddf0;strokeColor=#10739e;" parent="1" vertex="1">
          <mxGeometry x="50" y="780" width="120" height="20" as="geometry" />
        </mxCell>
        <mxCell id="ER6fGadgTy1CO4UheATH-87" value="&lt;font face=&quot;consolas&quot;&gt;factorial(2)&lt;/font&gt;" style="rounded=0;whiteSpace=wrap;html=1;fillColor=#b1ddf0;strokeColor=#10739e;" parent="1" vertex="1">
          <mxGeometry x="50" y="760" width="120" height="20" as="geometry" />
        </mxCell>
        <mxCell id="ER6fGadgTy1CO4UheATH-88" value="&lt;font face=&quot;consolas&quot;&gt;factorial(1)&lt;/font&gt;" style="rounded=0;whiteSpace=wrap;html=1;fillColor=#b1ddf0;strokeColor=#10739e;" parent="1" vertex="1">
          <mxGeometry x="50" y="740" width="120" height="20" as="geometry" />
        </mxCell>
        <mxCell id="ER6fGadgTy1CO4UheATH-89" value="&lt;font face=&quot;consolas&quot;&gt;factorial(0)&lt;/font&gt;" style="rounded=0;whiteSpace=wrap;html=1;fillColor=#b1ddf0;strokeColor=#10739e;" parent="1" vertex="1">
          <mxGeometry x="50" y="720" width="120" height="20" as="geometry" />
        </mxCell>
        <mxCell id="ER6fGadgTy1CO4UheATH-90" value="调用栈&lt;br&gt;Call Stack" style="rounded=0;whiteSpace=wrap;html=1;fillColor=#fad7ac;strokeColor=#b46504;align=center;verticalAlign=middle;" parent="1" vertex="1">
          <mxGeometry x="260" y="700" width="120" height="300" as="geometry" />
        </mxCell>
        <mxCell id="ER6fGadgTy1CO4UheATH-91" value="&lt;font face=&quot;consolas&quot;&gt;main()&lt;/font&gt;" style="rounded=0;whiteSpace=wrap;html=1;fillColor=#b1ddf0;strokeColor=#10739e;" parent="1" vertex="1">
          <mxGeometry x="260" y="980" width="120" height="20" as="geometry" />
        </mxCell>
        <mxCell id="ER6fGadgTy1CO4UheATH-92" value="&lt;font face=&quot;consolas&quot;&gt;factorial(12)&lt;/font&gt;" style="rounded=0;whiteSpace=wrap;html=1;fillColor=#b1ddf0;strokeColor=#10739e;" parent="1" vertex="1">
          <mxGeometry x="260" y="960" width="120" height="20" as="geometry" />
        </mxCell>
        <mxCell id="ER6fGadgTy1CO4UheATH-93" value="&lt;font face=&quot;consolas&quot;&gt;factorial(11)&lt;/font&gt;" style="rounded=0;whiteSpace=wrap;html=1;fillColor=#b1ddf0;strokeColor=#10739e;" parent="1" vertex="1">
          <mxGeometry x="260" y="940" width="120" height="20" as="geometry" />
        </mxCell>
        <mxCell id="ER6fGadgTy1CO4UheATH-94" value="&lt;font face=&quot;consolas&quot;&gt;factorial(10)&lt;/font&gt;" style="rounded=0;whiteSpace=wrap;html=1;fillColor=#b1ddf0;strokeColor=#10739e;" parent="1" vertex="1">
          <mxGeometry x="260" y="920" width="120" height="20" as="geometry" />
        </mxCell>
        <mxCell id="ER6fGadgTy1CO4UheATH-95" value="&lt;font face=&quot;consolas&quot;&gt;factorial(9)&lt;/font&gt;" style="rounded=0;whiteSpace=wrap;html=1;fillColor=#b1ddf0;strokeColor=#10739e;" parent="1" vertex="1">
          <mxGeometry x="260" y="900" width="120" height="20" as="geometry" />
        </mxCell>
        <mxCell id="ER6fGadgTy1CO4UheATH-96" value="&lt;font face=&quot;consolas&quot;&gt;factorial(8)&lt;/font&gt;" style="rounded=0;whiteSpace=wrap;html=1;fillColor=#b1ddf0;strokeColor=#10739e;" parent="1" vertex="1">
          <mxGeometry x="260" y="880" width="120" height="20" as="geometry" />
        </mxCell>
        <mxCell id="ER6fGadgTy1CO4UheATH-97" value="&lt;font face=&quot;consolas&quot;&gt;factorial(7)&lt;/font&gt;" style="rounded=0;whiteSpace=wrap;html=1;fillColor=#b1ddf0;strokeColor=#10739e;" parent="1" vertex="1">
          <mxGeometry x="260" y="860" width="120" height="20" as="geometry" />
        </mxCell>
        <mxCell id="ER6fGadgTy1CO4UheATH-98" value="&lt;font face=&quot;consolas&quot;&gt;factorial(6)&lt;/font&gt;" style="rounded=0;whiteSpace=wrap;html=1;fillColor=#b1ddf0;strokeColor=#10739e;" parent="1" vertex="1">
          <mxGeometry x="260" y="840" width="120" height="20" as="geometry" />
        </mxCell>
        <mxCell id="ER6fGadgTy1CO4UheATH-99" value="&lt;font face=&quot;consolas&quot;&gt;factorial(5)&lt;/font&gt;" style="rounded=0;whiteSpace=wrap;html=1;fillColor=#b1ddf0;strokeColor=#10739e;" parent="1" vertex="1">
          <mxGeometry x="260" y="820" width="120" height="20" as="geometry" />
        </mxCell>
        <mxCell id="ER6fGadgTy1CO4UheATH-100" value="&lt;font face=&quot;consolas&quot;&gt;factorial(4)&lt;/font&gt;" style="rounded=0;whiteSpace=wrap;html=1;fillColor=#b1ddf0;strokeColor=#10739e;" parent="1" vertex="1">
          <mxGeometry x="260" y="800" width="120" height="20" as="geometry" />
        </mxCell>
        <mxCell id="ER6fGadgTy1CO4UheATH-101" value="&lt;font face=&quot;consolas&quot;&gt;factorial(3)&lt;/font&gt;" style="rounded=0;whiteSpace=wrap;html=1;fillColor=#b1ddf0;strokeColor=#10739e;" parent="1" vertex="1">
          <mxGeometry x="260" y="780" width="120" height="20" as="geometry" />
        </mxCell>
        <mxCell id="ER6fGadgTy1CO4UheATH-102" value="&lt;font face=&quot;consolas&quot;&gt;factorial(2)&lt;/font&gt;" style="rounded=0;whiteSpace=wrap;html=1;fillColor=#b1ddf0;strokeColor=#10739e;" parent="1" vertex="1">
          <mxGeometry x="260" y="760" width="120" height="20" as="geometry" />
        </mxCell>
        <mxCell id="ER6fGadgTy1CO4UheATH-103" value="&lt;font face=&quot;consolas&quot;&gt;factorial(1)&lt;/font&gt;" style="rounded=0;whiteSpace=wrap;html=1;fillColor=#b1ddf0;strokeColor=#10739e;" parent="1" vertex="1">
          <mxGeometry x="260" y="740" width="120" height="20" as="geometry" />
        </mxCell>
        <mxCell id="ER6fGadgTy1CO4UheATH-107" value="" style="edgeStyle=orthogonalEdgeStyle;rounded=0;orthogonalLoop=1;jettySize=auto;html=1;" parent="1" source="ER6fGadgTy1CO4UheATH-75" target="ER6fGadgTy1CO4UheATH-90" edge="1">
          <mxGeometry relative="1" as="geometry">
            <mxPoint x="130" y="840" as="sourcePoint" />
            <mxPoint x="220" y="840" as="targetPoint" />
          </mxGeometry>
        </mxCell>
        <mxCell id="ER6fGadgTy1CO4UheATH-108" value="factorial(0)&lt;br&gt;提供返回值&lt;br&gt;移除堆栈帧" style="edgeLabel;html=1;align=center;verticalAlign=middle;resizable=0;points=[];" parent="ER6fGadgTy1CO4UheATH-107" vertex="1" connectable="0">
          <mxGeometry x="-0.0143" relative="1" as="geometry">
            <mxPoint y="25" as="offset" />
          </mxGeometry>
        </mxCell>
        <mxCell id="ER6fGadgTy1CO4UheATH-110" value="调用栈&lt;br&gt;Call Stack" style="rounded=0;whiteSpace=wrap;html=1;fillColor=#fad7ac;strokeColor=#b46504;align=center;verticalAlign=middle;" parent="1" vertex="1">
          <mxGeometry x="470" y="700" width="120" height="300" as="geometry" />
        </mxCell>
        <mxCell id="ER6fGadgTy1CO4UheATH-111" value="&lt;font face=&quot;consolas&quot;&gt;main()&lt;/font&gt;" style="rounded=0;whiteSpace=wrap;html=1;fillColor=#b1ddf0;strokeColor=#10739e;" parent="1" vertex="1">
          <mxGeometry x="470" y="980" width="120" height="20" as="geometry" />
        </mxCell>
        <mxCell id="ER6fGadgTy1CO4UheATH-112" value="&lt;font face=&quot;consolas&quot;&gt;factorial(12)&lt;/font&gt;" style="rounded=0;whiteSpace=wrap;html=1;fillColor=#b1ddf0;strokeColor=#10739e;" parent="1" vertex="1">
          <mxGeometry x="470" y="960" width="120" height="20" as="geometry" />
        </mxCell>
        <mxCell id="ER6fGadgTy1CO4UheATH-124" value="" style="edgeStyle=orthogonalEdgeStyle;rounded=0;orthogonalLoop=1;jettySize=auto;html=1;" parent="1" source="ER6fGadgTy1CO4UheATH-90" target="ER6fGadgTy1CO4UheATH-110" edge="1">
          <mxGeometry relative="1" as="geometry">
            <mxPoint x="380" y="840" as="sourcePoint" />
            <mxPoint x="470" y="840" as="targetPoint" />
          </mxGeometry>
        </mxCell>
        <mxCell id="ER6fGadgTy1CO4UheATH-125" value="……" style="edgeLabel;html=1;align=center;verticalAlign=middle;resizable=0;points=[];" parent="ER6fGadgTy1CO4UheATH-124" vertex="1" connectable="0">
          <mxGeometry x="-0.0143" relative="1" as="geometry">
            <mxPoint y="20" as="offset" />
          </mxGeometry>
        </mxCell>
        <mxCell id="ER6fGadgTy1CO4UheATH-126" value="" style="edgeStyle=orthogonalEdgeStyle;rounded=0;orthogonalLoop=1;jettySize=auto;html=1;" parent="1" source="ER6fGadgTy1CO4UheATH-110" target="ER6fGadgTy1CO4UheATH-128" edge="1">
          <mxGeometry relative="1" as="geometry">
            <mxPoint x="630" y="840" as="sourcePoint" />
            <mxPoint x="720" y="840" as="targetPoint" />
          </mxGeometry>
        </mxCell>
        <mxCell id="ER6fGadgTy1CO4UheATH-127" value="factorial(12)&lt;br&gt;提供返回值&lt;br&gt;移除堆栈帧" style="edgeLabel;html=1;align=center;verticalAlign=middle;resizable=0;points=[];" parent="ER6fGadgTy1CO4UheATH-126" vertex="1" connectable="0">
          <mxGeometry x="-0.0143" relative="1" as="geometry">
            <mxPoint y="25" as="offset" />
          </mxGeometry>
        </mxCell>
        <mxCell id="ER6fGadgTy1CO4UheATH-128" value="调用栈&lt;br&gt;Call Stack" style="rounded=0;whiteSpace=wrap;html=1;fillColor=#fad7ac;strokeColor=#b46504;align=center;verticalAlign=middle;" parent="1" vertex="1">
          <mxGeometry x="680" y="700" width="120" height="300" as="geometry" />
        </mxCell>
        <mxCell id="ER6fGadgTy1CO4UheATH-129" value="&lt;font face=&quot;consolas&quot;&gt;main()&lt;/font&gt;" style="rounded=0;whiteSpace=wrap;html=1;fillColor=#b1ddf0;strokeColor=#10739e;" parent="1" vertex="1">
          <mxGeometry x="680" y="980" width="120" height="20" as="geometry" />
        </mxCell>
        <mxCell id="ER6fGadgTy1CO4UheATH-131" value="调用栈&lt;br&gt;Call Stack" style="rounded=0;whiteSpace=wrap;html=1;fillColor=#fad7ac;strokeColor=#b46504;align=center;verticalAlign=middle;" parent="1" vertex="1">
          <mxGeometry x="680" y="360" width="120" height="300" as="geometry" />
        </mxCell>
        <mxCell id="ER6fGadgTy1CO4UheATH-132" value="&lt;font face=&quot;consolas&quot;&gt;main()&lt;/font&gt;" style="rounded=0;whiteSpace=wrap;html=1;fillColor=#b1ddf0;strokeColor=#10739e;" parent="1" vertex="1">
          <mxGeometry x="680" y="640" width="120" height="20" as="geometry" />
        </mxCell>
        <mxCell id="ER6fGadgTy1CO4UheATH-133" value="&lt;font face=&quot;consolas&quot;&gt;factorial(12)&lt;/font&gt;" style="rounded=0;whiteSpace=wrap;html=1;fillColor=#b1ddf0;strokeColor=#10739e;" parent="1" vertex="1">
          <mxGeometry x="680" y="620" width="120" height="20" as="geometry" />
        </mxCell>
        <mxCell id="ER6fGadgTy1CO4UheATH-134" value="&lt;font face=&quot;consolas&quot;&gt;factorial(11)&lt;/font&gt;" style="rounded=0;whiteSpace=wrap;html=1;fillColor=#b1ddf0;strokeColor=#10739e;" parent="1" vertex="1">
          <mxGeometry x="680" y="600" width="120" height="20" as="geometry" />
        </mxCell>
        <mxCell id="ER6fGadgTy1CO4UheATH-135" value="&lt;font face=&quot;consolas&quot;&gt;factorial(10)&lt;/font&gt;" style="rounded=0;whiteSpace=wrap;html=1;fillColor=#b1ddf0;strokeColor=#10739e;" parent="1" vertex="1">
          <mxGeometry x="680" y="580" width="120" height="20" as="geometry" />
        </mxCell>
        <mxCell id="ER6fGadgTy1CO4UheATH-136" value="&lt;font face=&quot;consolas&quot;&gt;factorial(9)&lt;/font&gt;" style="rounded=0;whiteSpace=wrap;html=1;fillColor=#b1ddf0;strokeColor=#10739e;" parent="1" vertex="1">
          <mxGeometry x="680" y="560" width="120" height="20" as="geometry" />
        </mxCell>
        <mxCell id="ER6fGadgTy1CO4UheATH-137" value="&lt;font face=&quot;consolas&quot;&gt;factorial(8)&lt;/font&gt;" style="rounded=0;whiteSpace=wrap;html=1;fillColor=#b1ddf0;strokeColor=#10739e;" parent="1" vertex="1">
          <mxGeometry x="680" y="540" width="120" height="20" as="geometry" />
        </mxCell>
        <mxCell id="ER6fGadgTy1CO4UheATH-138" value="&lt;font face=&quot;consolas&quot;&gt;factorial(7)&lt;/font&gt;" style="rounded=0;whiteSpace=wrap;html=1;fillColor=#b1ddf0;strokeColor=#10739e;" parent="1" vertex="1">
          <mxGeometry x="680" y="520" width="120" height="20" as="geometry" />
        </mxCell>
        <mxCell id="ER6fGadgTy1CO4UheATH-139" value="&lt;font face=&quot;consolas&quot;&gt;factorial(6)&lt;/font&gt;" style="rounded=0;whiteSpace=wrap;html=1;fillColor=#b1ddf0;strokeColor=#10739e;" parent="1" vertex="1">
          <mxGeometry x="680" y="500" width="120" height="20" as="geometry" />
        </mxCell>
        <mxCell id="ER6fGadgTy1CO4UheATH-140" value="&lt;font face=&quot;consolas&quot;&gt;factorial(5)&lt;/font&gt;" style="rounded=0;whiteSpace=wrap;html=1;fillColor=#b1ddf0;strokeColor=#10739e;" parent="1" vertex="1">
          <mxGeometry x="680" y="480" width="120" height="20" as="geometry" />
        </mxCell>
        <mxCell id="ER6fGadgTy1CO4UheATH-141" value="&lt;font face=&quot;consolas&quot;&gt;factorial(4)&lt;/font&gt;" style="rounded=0;whiteSpace=wrap;html=1;fillColor=#b1ddf0;strokeColor=#10739e;" parent="1" vertex="1">
          <mxGeometry x="680" y="460" width="120" height="20" as="geometry" />
        </mxCell>
        <mxCell id="ER6fGadgTy1CO4UheATH-142" value="&lt;font face=&quot;consolas&quot;&gt;factorial(3)&lt;/font&gt;" style="rounded=0;whiteSpace=wrap;html=1;fillColor=#b1ddf0;strokeColor=#10739e;" parent="1" vertex="1">
          <mxGeometry x="680" y="440" width="120" height="20" as="geometry" />
        </mxCell>
        <mxCell id="ER6fGadgTy1CO4UheATH-143" value="&lt;font face=&quot;consolas&quot;&gt;factorial(2)&lt;/font&gt;" style="rounded=0;whiteSpace=wrap;html=1;fillColor=#b1ddf0;strokeColor=#10739e;" parent="1" vertex="1">
          <mxGeometry x="680" y="420" width="120" height="20" as="geometry" />
        </mxCell>
        <mxCell id="ER6fGadgTy1CO4UheATH-144" value="&lt;font face=&quot;consolas&quot;&gt;factorial(1)&lt;/font&gt;" style="rounded=0;whiteSpace=wrap;html=1;fillColor=#b1ddf0;strokeColor=#10739e;" parent="1" vertex="1">
          <mxGeometry x="680" y="400" width="120" height="20" as="geometry" />
        </mxCell>
        <mxCell id="ER6fGadgTy1CO4UheATH-145" value="&lt;font face=&quot;consolas&quot;&gt;factorial(0)&lt;/font&gt;" style="rounded=0;whiteSpace=wrap;html=1;fillColor=#b1ddf0;strokeColor=#10739e;" parent="1" vertex="1">
          <mxGeometry x="680" y="380" width="120" height="20" as="geometry" />
        </mxCell>
      </root>
    </mxGraphModel>
  </diagram>
</mxfile>
